# xmcd
#
# Track frame offsets:
#	150
#	15440
#	33830
#	50715
#	66190
#	81815
#	99775
#	116645
#	130497
#	149560
#	167012
#	183127
#	203362
#	219815
#	234625
#	253620
#	272300
#	292002
#	310755
#	325335
#	342365
#
# Disc length: 4795 seconds
#
# Revision: 1
# Processed by: cddbd v1.5.1PL0 Copyright (c) Steve Scherf et al.
# Submitted via: audiograbber 1.83.01
#
DISCID=2512b915
DTITLE=Billy Ray Cyrus - The Definitive Collection
DYEAR=2004
DGENRE=Country
TTITLE0=Achy Breaky Heart
TTITLE1=Some Gave All
TTITLE2=Could've Been Me
TTITLE3=She's Not Cryin' Anymore
TTITLE4=Wher'm I Gonna Live
TTITLE5=In The Heart Of A Woman
TTITLE6=Somebody New
TTITLE7=Words By Heart
TTITLE8=Talk Some
TTITLE9=Storm In The Heartland
TTITLE10=Deja Blue
TTITLE11=The Fastest Horse In A One Horse Town
TTITLE12=Trail Of Tears
TTITLE13=Truth Is I Lied
TTITLE14=Three Little Words
TTITLE15=Harper Valley P.T.A.
TTITLE16=It's All The Same To Me
TTITLE17=Time For Letting Go
TTITLE18=Busy Man
TTITLE19=Give My Heart To You
TTITLE20=You Won't Be Lonely Now
EXTD=
EXTT0=
EXTT1=
EXTT2=
EXTT3=
EXTT4=
EXTT5=
EXTT6=
EXTT7=
EXTT8=
EXTT9=
EXTT10=
EXTT11=
EXTT12=
EXTT13=
EXTT14=
EXTT15=
EXTT16=
EXTT17=
EXTT18=
EXTT19=
EXTT20=
PLAYORDER=
